<?xml version="1.0" encoding="utf-8"?>
<!-- Generator: Adobe Illustrator 26.3.1, SVG Export Plug-In . SVG Version: 6.00 Build 0)  -->
<svg version="1.1" id="Layer_1" xmlns="http://www.w3.org/2000/svg" xmlns:xlink="http://www.w3.org/1999/xlink" x="0px" y="0px"
	 viewBox="0 0 281.8656616 103.5889206" style="enable-background:new 0 0 281.8656616 103.5889206;" xml:space="preserve">
<style type="text/css">
	.st0{fill:none;stroke:#DFE21D;stroke-width:20;stroke-miterlimit:10;}
	.st1{fill-rule:evenodd;clip-rule:evenodd;fill:#231F20;}
	.st2{fill:#FFFFFF;}
	.st3{fill:#231F20;}
	.st4{fill-rule:evenodd;clip-rule:evenodd;}
	.st5{fill-rule:evenodd;clip-rule:evenodd;fill:#FFFFFF;}
	.st6{fill:none;stroke:#000000;stroke-width:4;stroke-miterlimit:10;}
</style>
<g>
	<g>
		<path class="st3" d="M35.156601,9.4158983H23.1169586v38.1881523H12.0396423V9.4158983H0V0h35.156601V9.4158983z"/>
		<path class="st3" d="M42.8839722,30.2008781V0h10.5527573v30.9004478c0,5.130497,1.195118,8.6288223,6.1215935,8.6288223
			c4.7517052,0,6.12183-3.2358093,6.12183-8.6288223V0h10.5527649v30.2008781
			c0,12.4181976-5.3637695,18.3067627-16.6745949,18.3067627C48.2769852,48.5076408,42.8839722,42.6190758,42.8839722,30.2008781z"
			/>
		<path class="st3" d="M108.7098923,47.6040497l-7.6959839-18.1322269h-5.4805222v18.1322269H85.2138977V0h18.2777557
			c10.7567749,0,14.9836807,5.3640037,14.9836807,14.3423729c0,6.2675953-2.3319778,11.1065655-7.4917221,13.4972782
			l9.1533813,19.7643986H108.7098923z M95.5333862,21.2220325h6.7631454c4.2561569,0,5.830307-2.2737217,5.830307-6.5881319
			c0-3.6438513-1.4283905-5.8010569-5.6845398-5.8010569h-6.9089127V21.2220325z"/>
		<path class="st3" d="M126.9900208,0h13.4387817l7.9582672,25.0993919
			c0.903595,2.8857841,1.7489166,6.1215935,2.6817627,10.0279617h0.0875092L151.2145996,0h8.83284v47.6040497h-13.4387817
			l-7.9582672-25.0993919c-0.903595-2.8857861-1.7489166-6.1215954-2.6817627-10.0279627h-0.0875092l-0.0582581,35.1273537h-8.83284
			V0z"/>
		<path class="st3" d="M213.4387512,78.8685684c0,16.5000534-6.4133606,24.7203522-18.1029816,24.7203522
			c-11.660614,0-18.0737305-8.2202988-18.0737305-24.7203522c0-16.4700966,6.4131165-24.690876,18.0737305-24.690876
			C207.0253906,54.1776924,213.4387512,62.3984718,213.4387512,78.8685684z M188.3978577,78.8685684
			c0,11.0775528,2.4484863,15.4214478,6.937912,15.4214478c4.5184326,0,6.9671631-4.343895,6.9671631-15.4214478
			c0-11.0480728-2.4487305-15.3914948-6.9671631-15.3914948C190.846344,63.4770737,188.3978577,67.8204956,188.3978577,78.8685684z"
			/>
		<path class="st3" d="M172.8577423,102.6853333h-10.873291l-5.0139923-21.6885757
			c-1.02034-4.4309235-2.2739563-10.261467-3.4983215-16.4120712h-0.1747742
			c-1.2243652,6.1506042-2.4779816,11.9811478-3.4983215,16.4120712l-5.0139771,21.6885757h-10.8733063l11.8936462-47.6040497
			h15.1586914L172.8577423,102.6853333z"/>
		<path class="st3" d="M127.1754913,102.6853333H95.3422012v-9.0658798h20.7557373v-9.9699402H97.7326813v-8.5703278h18.3652573
			V64.1766434H95.3422012v-9.0953598h31.8332901V102.6853333z"/>
		<path class="st3" d="M62.2531624,55.0812836l7.6959801,18.132225h5.4805222v-18.132225h10.3194885v47.6040497H67.471405
			c-10.7567825,0-14.9836884-5.364006-14.9836884-14.3423767c0-6.2675934,2.3319817-11.1065598,7.4917259-13.4972763
			l-9.1533813-19.7643967H62.2531624z M75.4296646,81.4633026h-6.7631454c-4.2561493,0-5.8303032,2.2737198-5.8303032,6.5881271
			c0,3.6438522,1.4283867,5.8010559,5.6845436,5.8010559h6.908905V81.4633026z"/>
	</g>
	<path class="st3" d="M250.9384308,82.3833389h-20.7910156v-7h20.7910156c13.1933441,0,23.9272308-10.7338867,23.9272308-23.9272461
		v-0.2265625c0-13.1938477-10.7338867-23.9277325-23.9272308-23.9277325h-78.2324219v-7h78.2324219
		c17.0532074,0,30.9272308,13.8740215,30.9272308,30.9277325v0.2265625
		C281.8656616,68.5093155,267.9916382,82.3833389,250.9384308,82.3833389z"/>
	<polygon class="st3" points="243.0033722,95.6987686 222.3749542,78.8833389 243.0033722,62.0679092 247.4262238,67.4936905 
		233.4540558,78.8833389 247.4262238,90.2729874 	"/>
</g>
</svg>
